<svg width="43" height="43" viewBox="0 0 43 43" fill="none" xmlns="http://www.w3.org/2000/svg">
<path d="M16.1249 39.4154H26.8749C35.8333 39.4154 39.4166 35.832 39.4166 26.8737V16.1237C39.4166 7.16536 35.8333 3.58203 26.8749 3.58203H16.1249C7.16659 3.58203 3.58325 7.16536 3.58325 16.1237V26.8737C3.58325 35.832 7.16659 39.4154 16.1249 39.4154Z" stroke="#D19BA3" stroke-width="1.5" stroke-linecap="round" stroke-linejoin="round"/>
<path d="M16.1251 17.9167C18.1041 17.9167 19.7084 16.3124 19.7084 14.3333C19.7084 12.3543 18.1041 10.75 16.1251 10.75C14.1461 10.75 12.5417 12.3543 12.5417 14.3333C12.5417 16.3124 14.1461 17.9167 16.1251 17.9167Z" stroke="#D19BA3" stroke-width="1.5" stroke-linecap="round" stroke-linejoin="round"/>
<path d="M4.78381 33.9527L13.6167 28.0222C15.0321 27.0727 17.0746 27.1802 18.3467 28.2731L18.938 28.7927C20.3355 29.9931 22.593 29.9931 23.9905 28.7927L31.4438 22.3964C32.8413 21.196 35.0988 21.196 36.4963 22.3964L39.4167 24.9047" stroke="#D19BA3" stroke-width="1.5" stroke-linecap="round" stroke-linejoin="round"/>
</svg>
