<svg width="140" height="153" viewBox="0 0 140 153" fill="none" xmlns="http://www.w3.org/2000/svg">
<circle cx="66" cy="66" r="65.5" fill="white" stroke="#8B041A"/>
<path d="M60.1249 84.4154H70.8749C79.8333 84.4154 83.4166 80.832 83.4166 71.8737V61.1237C83.4166 52.1654 79.8333 48.582 70.8749 48.582H60.1249C51.1666 48.582 47.5833 52.1654 47.5833 61.1237V71.8737C47.5833 80.832 51.1666 84.4154 60.1249 84.4154Z" stroke="#D19BA3" stroke-width="1.5" stroke-linecap="round" stroke-linejoin="round"/>
<path d="M60.1251 62.9167C62.1041 62.9167 63.7084 61.3124 63.7084 59.3333C63.7084 57.3543 62.1041 55.75 60.1251 55.75C58.1461 55.75 56.5417 57.3543 56.5417 59.3333C56.5417 61.3124 58.1461 62.9167 60.1251 62.9167Z" stroke="#D19BA3" stroke-width="1.5" stroke-linecap="round" stroke-linejoin="round"/>
<path d="M48.7838 78.9527L57.6167 73.0222C59.0321 72.0727 61.0746 72.1802 62.3467 73.2731L62.938 73.7927C64.3355 74.9931 66.593 74.9931 67.9905 73.7927L75.4438 67.3964C76.8413 66.196 79.0988 66.196 80.4963 67.3964L83.4167 69.9047" stroke="#D19BA3" stroke-width="1.5" stroke-linecap="round" stroke-linejoin="round"/>
<circle cx="120.29" cy="97.7897" r="18.7897" fill="white" stroke="#8B041A"/>
<path d="M127.95 90.6661C125.899 88.615 123.913 88.5662 121.813 90.6661L120.527 91.952C120.413 92.066 120.381 92.2287 120.413 92.3752C121.211 95.1751 123.441 97.4051 126.241 98.2027C126.273 98.219 126.322 98.219 126.371 98.219C126.485 98.219 126.599 98.1702 126.68 98.0888L127.95 96.8191C128.992 95.7773 129.496 94.7844 129.496 93.7752C129.496 92.7171 128.992 91.7079 127.95 90.6661Z" fill="#8B041A"/>
<path d="M124.353 99.1459C124.044 98.9993 123.751 98.8528 123.474 98.6738C123.246 98.5436 123.018 98.3971 122.807 98.2343C122.627 98.1203 122.416 97.9576 122.204 97.7785C122.172 97.7622 122.107 97.7134 122.025 97.6157C121.683 97.3227 121.293 96.9321 120.935 96.5251C120.902 96.5088 120.853 96.4274 120.788 96.3298C120.674 96.1995 120.511 95.9879 120.349 95.76C120.218 95.5973 120.072 95.3694 119.942 95.1415C119.779 94.8648 119.616 94.5718 119.486 94.2788C119.339 93.9532 119.225 93.6602 119.111 93.3672L112.975 99.504C112.568 99.9109 112.193 100.66 112.112 101.213L111.64 104.599C111.526 105.315 111.737 105.983 112.177 106.438C112.551 106.813 113.072 107.008 113.642 107.008C113.772 107.008 113.886 106.992 114.016 106.976L117.402 106.503C117.956 106.422 118.704 106.048 119.111 105.641L125.248 99.504C124.955 99.39 124.662 99.2761 124.353 99.1459Z" fill="#8B041A"/>
<path d="M41.0146 142.147L41.0146 147.229C41.0146 147.784 40.9019 148.278 40.6763 148.711C40.4543 149.144 40.1177 149.486 39.6665 149.737C39.2153 149.984 38.6496 150.107 37.9692 150.107C36.9989 150.107 36.2594 149.844 35.751 149.318C35.2461 148.792 34.9937 148.088 34.9937 147.207L34.9937 142.147L35.9121 142.147L35.9121 147.234C35.9121 147.9 36.0876 148.414 36.4385 148.775C36.793 149.137 37.3211 149.318 38.0229 149.318C38.5028 149.318 38.8949 149.232 39.1992 149.06C39.5072 148.885 39.7345 148.641 39.8813 148.33C40.0317 148.014 40.1069 147.651 40.1069 147.239L40.1069 142.147L41.0146 142.147ZM45.7305 144.006C46.4645 144.006 47.05 144.258 47.4868 144.763C47.9237 145.268 48.1421 146.027 48.1421 147.041C48.1421 147.71 48.0418 148.272 47.8413 148.727C47.6408 149.182 47.3579 149.526 46.9927 149.758C46.631 149.991 46.2031 150.107 45.709 150.107C45.3975 150.107 45.1235 150.066 44.8872 149.984C44.6509 149.902 44.4486 149.791 44.2803 149.651C44.112 149.511 43.9723 149.359 43.8613 149.194L43.7969 149.194C43.8076 149.334 43.8201 149.502 43.8345 149.699C43.8524 149.896 43.8613 150.068 43.8613 150.215L43.8613 152.632L42.9644 152.632L42.9644 144.113L43.7002 144.113L43.8184 144.983L43.8613 144.983C43.9759 144.804 44.1156 144.641 44.2803 144.495C44.445 144.344 44.6455 144.226 44.8818 144.14C45.1217 144.051 45.4046 144.006 45.7305 144.006ZM45.5747 144.758C45.1665 144.758 44.8371 144.837 44.5864 144.994C44.3394 145.152 44.1585 145.388 44.0439 145.703C43.9294 146.015 43.8685 146.407 43.8613 146.879L43.8613 147.051C43.8613 147.549 43.915 147.97 44.0225 148.313C44.1335 148.657 44.3143 148.919 44.5649 149.098C44.8192 149.277 45.1593 149.366 45.5854 149.366C45.9507 149.366 46.255 149.268 46.4985 149.071C46.742 148.874 46.9229 148.6 47.041 148.249C47.1628 147.895 47.2236 147.488 47.2236 147.03C47.2236 146.335 47.0876 145.784 46.8154 145.375C46.5469 144.964 46.1333 144.758 45.5747 144.758ZM50.5967 150L49.6997 150L49.6997 141.643L50.5967 141.643L50.5967 150ZM57.5576 147.046C57.5576 147.529 57.495 147.961 57.3696 148.34C57.2443 148.72 57.0635 149.04 56.8271 149.302C56.5908 149.563 56.3044 149.764 55.9678 149.903C55.6348 150.039 55.257 150.107 54.8345 150.107C54.4406 150.107 54.0789 150.039 53.7495 149.903C53.4237 149.764 53.1408 149.563 52.9009 149.302C52.6646 149.04 52.4801 148.72 52.3477 148.34C52.2188 147.961 52.1543 147.529 52.1543 147.046C52.1543 146.401 52.2635 145.854 52.4819 145.402C52.7004 144.948 53.0119 144.602 53.4165 144.366C53.8247 144.126 54.3099 144.006 54.8721 144.006C55.4092 144.006 55.8783 144.126 56.2793 144.366C56.6839 144.606 56.9972 144.953 57.2192 145.408C57.4448 145.859 57.5576 146.405 57.5576 147.046ZM53.0781 147.046C53.0781 147.519 53.1408 147.929 53.2661 148.276C53.3914 148.623 53.5848 148.892 53.8462 149.082C54.1076 149.271 54.4442 149.366 54.856 149.366C55.2642 149.366 55.599 149.271 55.8604 149.082C56.1253 148.892 56.3205 148.623 56.4458 148.276C56.5711 147.929 56.6338 147.519 56.6338 147.046C56.6338 146.577 56.5711 146.172 56.4458 145.832C56.3205 145.488 56.1271 145.223 55.8657 145.037C55.6043 144.851 55.266 144.758 54.8506 144.758C54.2383 144.758 53.7889 144.96 53.5024 145.365C53.2196 145.769 53.0781 146.33 53.0781 147.046ZM61.3013 144.017C62.0031 144.017 62.5241 144.174 62.8643 144.489C63.2044 144.804 63.3745 145.307 63.3745 145.999L63.3745 150L62.7246 150L62.5527 149.13L62.5098 149.13C62.3451 149.345 62.1732 149.526 61.9941 149.672C61.8151 149.816 61.6074 149.925 61.3711 150C61.1383 150.072 60.8519 150.107 60.5117 150.107C60.1536 150.107 59.835 150.045 59.5557 149.919C59.2799 149.794 59.0615 149.604 58.9004 149.35C58.7428 149.096 58.6641 148.774 58.6641 148.383C58.6641 147.796 58.8968 147.345 59.3623 147.03C59.8278 146.715 60.5368 146.543 61.4893 146.514L62.5044 146.471L62.5044 146.111C62.5044 145.603 62.3952 145.247 62.1768 145.042C61.9583 144.838 61.6504 144.736 61.2529 144.736C60.945 144.736 60.6514 144.781 60.3721 144.871C60.0928 144.96 59.8278 145.066 59.5771 145.187L59.3032 144.511C59.5682 144.375 59.8726 144.258 60.2163 144.162C60.5601 144.065 60.9217 144.017 61.3013 144.017ZM62.4937 147.1L61.5967 147.137C60.8626 147.166 60.3452 147.286 60.0444 147.497C59.7437 147.708 59.5933 148.007 59.5933 148.394C59.5933 148.731 59.6953 148.979 59.8994 149.141C60.1035 149.302 60.3739 149.382 60.7104 149.382C61.2332 149.382 61.6611 149.237 61.9941 148.947C62.3271 148.657 62.4937 148.222 62.4937 147.642L62.4937 147.1ZM67.3062 150.107C66.5614 150.107 65.9705 149.853 65.5337 149.345C65.1004 148.836 64.8838 148.081 64.8838 147.078C64.8838 146.065 65.1058 145.3 65.5498 144.785C65.9938 144.265 66.5846 144.006 67.3223 144.006C67.6338 144.006 67.9059 144.047 68.1387 144.129C68.3714 144.212 68.5719 144.323 68.7402 144.462C68.9085 144.598 69.05 144.754 69.1646 144.93L69.229 144.93C69.2147 144.819 69.2004 144.667 69.186 144.473C69.1717 144.28 69.1646 144.122 69.1646 144L69.1646 141.643L70.0562 141.643L70.0562 150L69.3364 150L69.2021 149.162L69.1646 149.162C69.0535 149.338 68.9121 149.497 68.7402 149.64C68.5719 149.783 68.3696 149.898 68.1333 149.984C67.9006 150.066 67.6248 150.107 67.3062 150.107ZM67.4458 149.366C68.076 149.366 68.5218 149.187 68.7832 148.829C69.0446 148.471 69.1753 147.939 69.1753 147.234L69.1753 147.073C69.1753 146.324 69.05 145.75 68.7993 145.349C68.5522 144.948 68.1011 144.747 67.4458 144.747C66.8979 144.747 66.488 144.958 66.2158 145.381C65.9437 145.8 65.8076 146.373 65.8076 147.1C65.8076 147.823 65.9419 148.382 66.2104 148.775C66.4826 149.169 66.8944 149.366 67.4458 149.366ZM76.9902 142.147C78.0036 142.147 78.743 142.346 79.2085 142.744C79.6776 143.138 79.9121 143.703 79.9121 144.441C79.9121 144.774 79.8566 145.091 79.7456 145.392C79.6382 145.689 79.4627 145.952 79.2192 146.181C78.9757 146.407 78.6553 146.586 78.2578 146.718C77.8639 146.847 77.3805 146.912 76.8076 146.912L75.8516 146.912L75.8516 150L74.9385 150L74.9385 142.147L76.9902 142.147ZM76.9043 142.926L75.8516 142.926L75.8516 146.127L76.7056 146.127C77.2069 146.127 77.624 146.074 77.957 145.966C78.2936 145.859 78.5461 145.685 78.7144 145.445C78.8826 145.202 78.9668 144.88 78.9668 144.479C78.9668 143.956 78.8003 143.567 78.4673 143.313C78.1343 143.055 77.6133 142.926 76.9043 142.926ZM82.313 141.643L82.313 144.14C82.313 144.283 82.3094 144.428 82.3022 144.575C82.2951 144.718 82.2826 144.851 82.2646 144.973L82.3237 144.973C82.4455 144.765 82.5994 144.591 82.7856 144.452C82.9754 144.308 83.1903 144.201 83.4302 144.129C83.6701 144.054 83.9243 144.017 84.1929 144.017C84.6655 144.017 85.0594 144.092 85.3745 144.242C85.6932 144.393 85.9313 144.625 86.0889 144.94C86.25 145.256 86.3306 145.664 86.3306 146.165L86.3306 150L85.4497 150L85.4497 146.224C85.4497 145.734 85.3369 145.367 85.1113 145.123C84.8893 144.88 84.5474 144.758 84.0854 144.758C83.6486 144.758 83.2995 144.842 83.0381 145.01C82.7803 145.175 82.5941 145.418 82.4795 145.741C82.3685 146.063 82.313 146.457 82.313 146.922L82.313 150L81.4214 150L81.4214 141.643L82.313 141.643ZM93.2432 147.046C93.2432 147.529 93.1805 147.961 93.0552 148.34C92.9299 148.72 92.749 149.04 92.5127 149.302C92.2764 149.563 91.9899 149.764 91.6533 149.903C91.3203 150.039 90.9425 150.107 90.52 150.107C90.1261 150.107 89.7645 150.039 89.4351 149.903C89.1092 149.764 88.8263 149.563 88.5864 149.302C88.3501 149.04 88.1657 148.72 88.0332 148.34C87.9043 147.961 87.8398 147.529 87.8398 147.046C87.8398 146.401 87.9491 145.854 88.1675 145.402C88.3859 144.948 88.6974 144.602 89.1021 144.366C89.5103 144.126 89.9954 144.006 90.5576 144.006C91.0947 144.006 91.5638 144.126 91.9648 144.366C92.3695 144.606 92.6828 144.953 92.9048 145.408C93.1304 145.859 93.2432 146.405 93.2432 147.046ZM88.7637 147.046C88.7637 147.519 88.8263 147.929 88.9517 148.276C89.077 148.623 89.2703 148.892 89.5317 149.082C89.7931 149.271 90.1297 149.366 90.5415 149.366C90.9497 149.366 91.2845 149.271 91.5459 149.082C91.8109 148.892 92.006 148.623 92.1313 148.276C92.2567 147.929 92.3193 147.519 92.3193 147.046C92.3193 146.577 92.2567 146.172 92.1313 145.832C92.006 145.488 91.8127 145.223 91.5513 145.037C91.2899 144.851 90.9515 144.758 90.5361 144.758C89.9238 144.758 89.4744 144.96 89.188 145.365C88.9051 145.769 88.7637 146.33 88.7637 147.046ZM96.686 149.377C96.8328 149.377 96.9832 149.364 97.1372 149.339C97.2912 149.314 97.4165 149.284 97.5132 149.248L97.5132 149.941C97.4093 149.987 97.2643 150.027 97.0781 150.059C96.8955 150.091 96.7165 150.107 96.541 150.107C96.2295 150.107 95.9466 150.054 95.6924 149.946C95.4382 149.835 95.234 149.649 95.0801 149.388C94.9297 149.126 94.8545 148.765 94.8545 148.303L94.8545 144.812L94.0166 144.812L94.0166 144.376L94.8599 144.027L95.2144 142.749L95.7515 142.749L95.7515 144.113L97.4756 144.113L97.4756 144.812L95.7515 144.812L95.7515 148.276C95.7515 148.645 95.8356 148.92 96.0039 149.103C96.1758 149.286 96.4032 149.377 96.686 149.377ZM103.781 147.046C103.781 147.529 103.719 147.961 103.593 148.34C103.468 148.72 103.287 149.04 103.051 149.302C102.814 149.563 102.528 149.764 102.191 149.903C101.858 150.039 101.481 150.107 101.058 150.107C100.664 150.107 100.303 150.039 99.9731 149.903C99.6473 149.764 99.3644 149.563 99.1245 149.302C98.8882 149.04 98.7038 148.72 98.5713 148.34C98.4424 147.961 98.3779 147.529 98.3779 147.046C98.3779 146.401 98.4871 145.854 98.7056 145.402C98.924 144.948 99.2355 144.602 99.6401 144.366C100.048 144.126 100.534 144.006 101.096 144.006C101.633 144.006 102.102 144.126 102.503 144.366C102.908 144.606 103.221 144.953 103.443 145.408C103.668 145.859 103.781 146.405 103.781 147.046ZM99.3018 147.046C99.3018 147.519 99.3644 147.929 99.4897 148.276C99.6151 148.623 99.8084 148.892 100.07 149.082C100.331 149.271 100.668 149.366 101.08 149.366C101.488 149.366 101.823 149.271 102.084 149.082C102.349 148.892 102.544 148.623 102.669 148.276C102.795 147.929 102.857 147.519 102.857 147.046C102.857 146.577 102.795 146.172 102.669 145.832C102.544 145.488 102.351 145.223 102.089 145.037C101.828 144.851 101.49 144.758 101.074 144.758C100.462 144.758 100.013 144.96 99.7261 145.365C99.4432 145.769 99.3018 146.33 99.3018 147.046Z" fill="#77797D"/>
</svg>
